<?xml version="1.0" encoding="utf-8"?>
<!-- Generator: Adobe Illustrator 19.0.0, SVG Export Plug-In . SVG Version: 6.00 Build 0)  -->
<svg version="1.1" id="图层_1" xmlns="http://www.w3.org/2000/svg" xmlns:xlink="http://www.w3.org/1999/xlink" x="0px" y="0px"
	 viewBox="0 0 4870.4 1490.5" style="enable-background:new 0 0 4870.4 1490.5;" xml:space="preserve">
<style type="text/css">
	.st0{display:none;fill:#1E252A;}
	.st1{fill:#FFFFFF;}
	.st2{fill-rule:evenodd;clip-rule:evenodd;fill:url(#XMLID_118_);}
</style>
<rect id="XMLID_77_" x="-232.1" y="-328.3" class="st0" width="5794.8" height="2399.5"/>
<g id="XMLID_3_">
	<path id="XMLID_4_" class="st1" d="M1627.4,671c2.3-11.8,9.4-15.3,21.2-10.6c9.4,2.4,14.1,9.4,14.1,21.2c-2.4,4.7-4.7,13-7.1,24.7
		c-14.1,37.7-25.9,64.8-35.3,81.3c54.2,54.2,107.2,97.8,159,130.7c9.4,4.7,9.4,11.8,0,21.2c-11.8,11.8-24.7,10.6-38.9-3.5
		c-35.3-23.5-80.1-62.4-134.3-116.6c-42.4,82.5-101.3,148.4-176.7,197.9c-16.5,9.4-31.8,9.4-45.9,0c-9.4-7.1-9.4-12.9,0-17.7
		C1503.7,933.7,1585,824.2,1627.4,671z M1789.9,409.6c4.7-9.4,11.8-11.8,21.2-7.1c9.4,9.4,11.8,18.9,7.1,28.3
		c-2.4,2.4-5.9,5.9-10.6,10.6c-4.7,7.1-8.3,11.8-10.6,14.1c117.8,96.6,241.4,162.5,371,197.9c7.1,2.4,10.6,4.7,10.6,7.1
		c0,2.4-2.4,5.9-7.1,10.6c-7.1,18.9-21.2,23.6-42.4,14.1c-129.6-49.5-247.3-117.8-353.3-204.9c-63.6,80.1-166.1,150.8-307.4,212
		c-23.6,9.4-40.1,5.9-49.5-10.6c-7.1-7.1-4.7-12.9,7.1-17.7C1595.6,607.4,1716.9,522.6,1789.9,409.6z M1938.3,667.5
		c2.3-11.8,8.2-15.3,17.7-10.6c9.4,2.4,14.1,9.4,14.1,21.2c-7.1,37.7-16.5,73-28.3,106c70.7,103.7,151.9,179,243.8,226.1
		c4.7,2.4,7.1,4.7,7.1,7.1c2.3,0,1.2,2.4-3.5,7.1c-14.1,11.8-28.3,14.1-42.4,7.1c-77.7-49.5-149.6-120.1-215.5-212
		c-30.6,87.2-77.7,155.5-141.3,204.9c-16.5,4.7-30.6,3.5-42.4-3.5c-7.1-4.7-7.1-9.4,0-14.1C1851.2,931.4,1914.8,818.3,1938.3,667.5z
		"/>
	<path id="XMLID_8_" class="st1" d="M3004,706.4c-25.9,35.3-68.3,82.5-127.2,141.3c51.8,66,122.5,119,212,159
		c7.1,2.4,10.6,4.7,10.6,7.1c0,2.4-2.4,5.9-7.1,10.6c-18.9,7.1-36.5,8.2-53,3.5c-82.5-44.7-146.1-97.7-190.8-159
		c-35.3,35.3-74.2,66-116.6,91.9c-21.2,16.5-37.7,16.5-49.5,0c-7.1-7.1-5.9-12.9,3.5-17.7c37.7-16.5,86-50.6,144.9-102.5
		c-40.1-63.6-67.1-147.2-81.3-250.9c-134.3,0-230.9,3.5-289.7,10.6c-11.8,4.7-17.7,16.5-17.7,35.3v53c0,2.4,0,8.3,0,17.7
		c-2.4,7.1-3.5,13-3.5,17.7c65.9,0,123.7,0,173.1,0c35.3,0,51.8,17.7,49.5,53c-7.1,77.7-17.7,139-31.8,183.7
		c-4.7,21.2-17.7,30.6-38.9,28.3c-7.1,0-10.6-1.2-10.6-3.5c-2.4-4.7-1.2-9.4,3.5-14.1c21.2-47.1,34.1-107.2,38.9-180.2
		c7.1-25.9-3.5-37.7-31.8-35.3c-58.9,0-109.5,1.2-151.9,3.5c-14.1,132-54.2,220.3-120.1,265c-16.5,7.1-31.8,7.1-45.9,0
		c-7.1-9.4-5.9-16.5,3.5-21.2c89.5-44.7,133.1-157.8,130.7-339.2v-49.5c-2.4-33,10.6-49.5,38.9-49.5c120.1-4.7,220.2-7.1,300.3-7.1
		c-4.7-56.5-7.1-106-7.1-148.4c0-9.4,5.9-14.1,17.7-14.1c11.8,0,17.7,4.7,17.7,14.1c0,51.8,1.2,101.3,3.5,148.4
		c28.3,2.4,73,3.5,134.3,3.5c61.2,2.4,107.2,3.5,137.8,3.5h3.5c7.1,2.4,9.4,5.9,7.1,10.6c-2.4,16.5-11.8,24.7-28.3,24.7
		c-56.5-7.1-140.2-10.6-250.9-10.6c14.1,98.9,40,175.5,77.7,229.7c58.9-56.5,100.1-103.6,123.7-141.3c4.7-7.1,11.8-7.1,21.2,0
		C3015.8,680.5,3015.8,689.9,3004,706.4z M2944,512c-2.4-2.3-7.1-5.9-14.1-10.6c-37.7-28.3-64.8-45.9-81.3-53
		c-9.4-4.7-13-11.8-10.6-21.2c4.7-11.8,12.9-15.3,24.7-10.6c14.1,7.1,42.4,25.9,84.8,56.5c9.4,4.7,15.3,8.3,17.7,10.6
		c9.4,7.1,10.6,15.3,3.5,24.7C2961.6,517.9,2953.3,519.1,2944,512z"/>
	<path id="XMLID_14_" class="st1" d="M3288.8,653.4c-42.4,47.1-80.1,80.1-113.1,98.9c-16.5,9.4-30.6,9.4-42.4,0
		c-7.1-7.1-5.9-12.9,3.5-17.7c35.3-18.8,78.9-51.8,130.7-98.9c7.1-7.1,14.1-8.2,21.2-3.5C3295.9,639.2,3295.9,646.3,3288.8,653.4z
		 M3486.7,406c9.4,0,15.3,4.7,17.7,14.1v3.5c2.3,9.4-4.7,15.3-21.2,17.7c-21.2,2.4-62.4,5.9-123.7,10.6v116.6c40,0,88.3,0,144.9,0
		c11.8,0,16.5,3.5,14.1,10.6c0,16.5-11.8,23.6-35.3,21.2c-16.5,0-38.9-1.2-67.1-3.5c-25.9,0-44.8,0-56.5,0v151.9
		c0,11.8-4.7,17.7-14.1,17.7c-11.8,0-17.7-5.9-17.7-17.7V596.8c-47.1,0-102.5,3.5-166.1,10.6c-9.4,0-13-3.5-10.6-10.6
		c2.3-11.8,11.8-20,28.3-24.7c-2.4,0-1.2,0,3.5,0c21.2,0,48.3-1.2,81.3-3.5c28.3,0,49.5,0,63.6,0V455.5
		c-42.4,2.4-83.6,3.5-123.7,3.5c-16.5,0-25.9-7.1-28.3-21.2c-2.4-7.1,2.3-10.6,14.1-10.6C3295.9,427.2,3394.8,420.2,3486.7,406z
		 M3204,1013.8c-14.1,2.4-22.4-3.5-24.7-17.7c-2.4-73-2.4-127.2,0-162.5c0-25.9,9.4-38.9,28.3-38.9c89.5-7.1,177.8-7.1,265,0
		c18.8,0,28.3,11.8,28.3,35.3c7.1,42.4,7.1,96.6,0,162.5c0,16.5-9.4,23.6-28.3,21.2C3394.8,1006.7,3305.3,1006.7,3204,1013.8z
		 M3260.5,554.4c-21.2-21.2-38.9-36.5-53-45.9c-9.4-14.1-10.6-22.4-3.5-24.7c7.1-9.4,15.3-10.6,24.7-3.5
		c11.8,7.1,30.6,23.6,56.5,49.5c7.1,9.4,7.1,17.7,0,24.7C3275.8,561.5,3267.6,561.5,3260.5,554.4z M3207.5,890.1
		c42.4-2.3,83.6-3.5,123.7-3.5V823c-49.5,0-81.3,1.2-95.4,3.5c-14.1,0-22.4,8.3-24.7,24.7C3208.7,863.1,3207.5,876,3207.5,890.1z
		 M3331.2,914.8c-25.9,0-63.6,2.4-113.1,7.1c35.3-4.7,31.8-4.7-10.6,0c0,2.4,1.2,7.1,3.5,14.1c0,7.1,0,13,0,17.7
		c2.3,18.9,10.6,27.1,24.7,24.7c33,0,64.8,0,95.4,0V914.8z M3359.5,886.6c47.1,0,86,1.2,116.6,3.5c-2.4-14.1-3.5-27.1-3.5-38.9
		c-2.4-14.1-9.4-22.4-21.2-24.7c-11.8-2.3-42.4-3.5-91.9-3.5V886.6z M3454.9,978.4c9.4,2.4,15.3-4.7,17.7-21.2c0-14.1,0-25.9,0-35.3
		c-11.8-2.3-30.6-3.5-56.5-3.5c-25.9-2.3-44.8-3.5-56.5-3.5v63.6C3394.8,978.4,3426.6,978.4,3454.9,978.4z M3500.8,738.2
		c-33-30.6-67.1-56.5-102.5-77.7c-9.4-9.4-9.4-17.7,0-24.7c4.7-7.1,14.1-5.9,28.3,3.5c2.3,2.4,7.1,5.9,14.1,10.6
		c35.3,25.9,61.2,47.1,77.7,63.6c7.1,9.4,8.2,17.7,3.5,24.7C3517.3,745.2,3510.2,745.2,3500.8,738.2z M3423.1,550.9
		c-11.8,7.1-20,7.1-24.7,0c-7.1-7.1-5.9-15.3,3.5-24.7c21.2-14.1,41.2-31.8,60.1-53c7.1-7.1,14.1-5.9,21.2,3.5
		c9.4,7.1,8.2,15.3-3.5,24.7C3465.5,515.6,3446.6,532.1,3423.1,550.9z M3560.9,890.1c-9.4,9.4-16.5,9.4-21.2,0
		c-4.7-14.1-2.4-28.3,7.1-42.4c28.3-35.3,73-86,134.3-151.9c7.1-9.4,12.9-16.5,17.7-21.2l7.1-7.1c0-14.1,0-37.7,0-70.7
		c2.3-35.3,3.5-62.4,3.5-81.3c4.7-42.4-3.5-63.6-24.7-63.6c-49.5-4.7-96.6-3.5-141.3,3.5c-9.4,0-13-3.5-10.6-10.6
		c2.3-18.8,9.4-27.1,21.2-24.7c58.9-4.7,104.8-3.5,137.8,3.5c47.1-2.3,63.6,29.5,49.5,95.4c-9.4,242.6-8.3,404,3.5,484.1
		c0,16.5-5.9,25.9-17.7,28.3c-11.8,0-18.9-7.1-21.2-21.2c-2.4-49.5-3.5-148.4-3.5-296.8c-9.4,11.8-24.7,31.8-45.9,60.1
		C3604.4,834.8,3572.6,873.7,3560.9,890.1z M3621,660.4c-28.3-40-54.2-74.2-77.7-102.5c-7.1-7.1-5.9-14.1,3.5-21.2
		c4.7-4.7,12.9-1.2,24.7,10.6c25.9,25.9,50.6,56.5,74.2,91.9c4.7,11.8,3.5,21.2-3.5,28.3C3635.1,672.3,3628,669.9,3621,660.4z
		 M3794.1,883c-11.8,9.4-20,10.6-24.7,3.5V883c-4.7-14.1-3.5-24.7,3.5-31.8c65.9-84.8,121.3-150.7,166.1-197.9
		c0-25.9,2.3-68.3,7.1-127.2c-4.7,42.4-4.7,38.9,0-10.6c2.3-44.7-7.1-65.9-28.3-63.6c-35.3-7.1-82.5-5.9-141.3,3.5
		c-9.4,2.4-13-2.3-10.6-14.1c2.3-16.5,10.6-23.5,24.7-21.2c2.3,0,5.9,0,10.6,0c58.9-4.7,100.1-4.7,123.7,0c44.7,0,62.4,33,53,98.9
		c-11.8,230.9-11.8,392.2,0,484.1c0,14.1-5.9,23.6-17.7,28.3c-11.8,0-17.7-8.2-17.7-24.7c-4.7-47.1-7.1-148.4-7.1-303.9
		C3878.9,768.8,3831.7,828.9,3794.1,883z M3861.2,649.8c-16.5-28.3-42.4-61.2-77.7-98.9c-7.1-9.4-5.9-17.7,3.5-24.7
		c7.1-4.7,15.3-1.2,24.7,10.6c21.2,21.2,45.9,53,74.2,95.4c7.1,9.4,5.9,17.7-3.5,24.7C3875.4,664,3868.3,661.7,3861.2,649.8z"/>
	<path id="XMLID_30_" class="st1" d="M4262.6,808.8c7.1-7.1,12.9-5.9,17.7,3.5c7.1,11.8,5.9,22.4-3.5,31.8
		c-18.9,30.6-44.8,58.9-77.7,84.8c-30.6,16.5-48.3,5.9-53-31.8c0-96.6,2.3-176.7,7.1-240.3c2.3-18.8-4.7-27.1-21.2-24.7
		c-30.6-2.3-67.1,0-109.5,7.1c-9.4,2.4-13-1.2-10.6-10.6c7.1-16.5,15.3-24.7,24.7-24.7c28.3-2.3,67.1-3.5,116.6-3.5
		c23.5,4.7,34.1,17.7,31.8,38.9c0,21.2-1.2,48.3-3.5,81.3c-4.7,66-5.9,116.6-3.5,151.9c0,9.4,2.3,15.3,7.1,17.7
		c2.3,2.4,7.1,1.2,14.1-3.5C4224.9,863.1,4246.1,837.1,4262.6,808.8z M4230.8,543.8c-51.8-42.4-97.8-74.2-137.8-95.4
		c-11.8-4.7-14.1-12.9-7.1-24.7c7.1-7.1,15.3-8.2,24.7-3.5c44.7,23.6,91.9,55.4,141.3,95.4C4259.1,534.5,4252,543.8,4230.8,543.8z
		 M4396.9,497.9c9.4-9.4,18.8-10.6,28.3-3.5c35.3,28.3,80.1,55.4,134.3,81.3c80.1-40,133.1-69.5,159-88.3c7.1-4.7,9.4-9.4,7.1-14.1
		c-4.7-2.3-11.8-4.7-21.2-7.1c-153.2-9.4-270.9-5.9-353.3,10.6c-7.1,0-10.6-1.2-10.6-3.5c-2.4,0-2.4-3.5,0-10.6
		c2.3-14.1,10.6-21.2,24.7-21.2c98.9-9.4,216.7-10.6,353.3-3.5c23.5,2.4,40,10.6,49.5,24.7c7.1,18.9,2.3,34.2-14.1,45.9
		c-42.4,23.6-94.2,51.8-155.5,84.8c103.6,40.1,189.6,67.1,257.9,81.3c7.1,2.4,11.8,4.7,14.1,7.1c0,4.7-2.4,9.4-7.1,14.1
		c-7.1,16.5-23.6,20-49.5,10.6c-91.9-28.3-176.7-60.1-254.4-95.4c-70.7,33-149.6,63.6-236.7,91.9c-21.2,9.4-37.7,7.1-49.5-7.1
		c-4.7-7.1-3.5-12.9,3.5-17.7c73-18.8,154.3-47.1,243.8-84.8c-42.4-25.9-82.5-50.6-120.1-74.2C4393.4,512,4392.1,505,4396.9,497.9z
		 M4379.2,741.7c37.7-2.3,91.9-3.5,162.5-3.5V671c0-9.4,5.9-15.3,17.7-17.7c11.8,0,17.7,5.9,17.7,17.7v67.1
		c21.2,0,55.3,1.2,102.5,3.5c35.3,0,58.9,0,70.7,0h3.5c18.8,2.4,25.9,8.3,21.2,17.7c2.3,16.5-8.3,22.4-31.8,17.7
		c-61.3-4.7-116.6-7.1-166.1-7.1v91.9c77.7,0,167.2,3.5,268.5,10.6c14.1,0,20,4.7,17.7,14.1c-2.4,18.9-13,25.9-31.8,21.2
		c-75.4-9.4-160.2-14.1-254.4-14.1v127.2c0,7.1-5.9,11.8-17.7,14.1c-11.8-2.4-17.7-7.1-17.7-14.1V893.6
		c-98.9,0-182.6,4.7-250.9,14.1c-16.5,2.4-22.4-1.2-17.7-10.6c2.3-16.5,11.8-25.9,28.3-28.3c94.2-4.7,174.3-7.1,240.3-7.1V770
		c-80.1,0-137.8,2.4-173.1,7.1c-9.4,0-14.1-3.5-14.1-10.6C4356.8,750,4365.1,741.7,4379.2,741.7z"/>
</g>
<g id="XMLID_2_">
	<g id="XMLID_99_">
		<linearGradient id="XMLID_118_" gradientUnits="userSpaceOnUse" x1="546.3291" y1="1490.4912" x2="546.3291" y2="1.006874e-05">
			<stop  offset="0.35" style="stop-color:#FFEA59"/>
			<stop  offset="1" style="stop-color:#00ECFF"/>
		</linearGradient>
		<path id="XMLID_100_" class="st2" d="M775.4,856c-118.3,0-221.4,64.8-275.9,160.7c-109.4-37.4-236.9-81-325.3-111.3l858-518.3
			c24.2-14,32.3-45.5,18.1-70.2c-3.3-5.7-7.5-10.5-12.2-14.4c-6.1-6.2-13.7-10.9-22.6-13.3L624,154.4C620.5,68.6,550,0,463.2,0
			c-89,0-161.1,72.1-161.1,161.1c0,89,72.1,161.1,161.1,161.1c54.5,0,102.6-27.2,131.8-68.6l291.8,100.5L29.9,871.8
			c-2.9,1.5-5.7,3.2-8.3,5.2C0.1,892-6.5,921.4,7,944.9c8.5,14.7,23,23.7,38.4,25.7c40.4,13.8,248.9,85.1,418.4,143.1
			c-3.7,19.3-5.7,39.2-5.7,59.5c0,175.2,142,317.2,317.2,317.2c175.2,0,317.2-142,317.2-317.2S950.6,856,775.4,856z M775.4,1379.7
			c-114,0-206.5-92.4-206.5-206.5c0-114,92.4-206.5,206.5-206.5c114,0,206.5,92.4,206.5,206.5
			C981.9,1287.3,889.4,1379.7,775.4,1379.7z"/>
	</g>
</g>
</svg>
